<?xml version="1.0" encoding="UTF-8"?>
<svg clip-rule="evenodd" fill-rule="evenodd" stroke-linejoin="round" stroke-miterlimit="2" version="1.1" viewBox="0 0 500 500" xmlns="http://www.w3.org/2000/svg">
 <path d="m420.75 430.55q-17.5-1.5-74-1.5-56 0-73.5 1.5v-15.5h12q27 0 33-4.5 6.5-4.5 6.5-19v-131h-149.5v131q0 14.5 6 19 6.5 4.5 33.5 4.5h12v15.5q-17.5-1.5-74-1.5-56 0-73.5 1.5v-15.5h12q27 0 33-4.5 6.5-4.5 6.5-19v-263.5q0-14.5-6.5-19-6-4.5-33-4.5h-12v-15.5q17.5 1.5 74 1.5 56 0 73.5-1.5v15.5h-12q-27 0-33.5 4.5-6 4.5-6 19v117h149.5v-117q0-14.5-6.5-19-6-4.5-33-4.5h-12v-15.5q17.5 1.5 74 1.5 56 0 73.5-1.5v15.5h-12q-27 0-33.5 4.5-6 4.5-6 19v263.5q0 14.5 6 19 6.5 4.5 33.5 4.5h12z" fill="#1b1818"/>
 <rect width="500" height="35" fill="#a00"/>
</svg>
