<svg version="1" xmlns="http://www.w3.org/2000/svg" width="933.333" height="933.333" viewBox="0 0 700.000000 700.000000"><path d="M0 24.5V49h700V0H0v24.5zM111 135.5c0 5.8.3 10.5.8 10.6.4 0 8.8.2 18.7.4 16.4.3 26.5.9 30.5 2 .8.2 3 .7 4.9 1 7.9 1.3 12.8 6.2 15.5 15.4 1.5 5 1.6 24.2 1.4 201-.3 187.5-.4 195.8-2.1 199.6-4.8 10.4-10.1 12.8-32.7 15.1-1.4.1-10.3.2-19.7.3l-17.3.1v21.9l4.8-.4c16.1-1.5 145.2-2.2 177.2-.9 8 .3 16.7.6 19.5.7l5 .2v-10.4c0-6-.4-10.5-1-10.7-.5-.1-10.7-.5-22.5-.8-21.3-.5-24.7-.8-32.5-2.8-8.2-2.1-12-6-14.7-15-.9-3.3-1.2-27.1-1.3-101.1l-.1-96.7 2-.1c2.9-.1 195.9-.1 202.2 0l5 .1-.1 96.2c-.1 103.2-.1 102.7-5.2 109.6-5.3 7.1-13.9 9.1-43.3 9.9-12.4.3-22.7.9-23 1.4-.3.5-.6 5.3-.5 10.6l.1 9.8 8.9-.4c5-.2 12.4-.5 16.5-.6 24.1-1 161.1-.3 175.8.9l5.2.4V581l-15.7-.1c-43-.2-52.3-3.6-55.2-20.3-.8-4.5-1.1-62.4-1.1-198.2 0-205.3-.1-197.6 4.8-205.6 2.6-4.1 4.6-5.3 11.9-7.2 8.3-2.1 16.3-2.8 36.3-3.1 9.6-.2 17.8-.4 18.3-.4.4-.1.7-4.8.7-10.6v-10.6l-18.7.8c-24.1.9-147.5.9-170 0-9.5-.4-17.4-.4-17.4 0-.6 4.1-.3 19.6.4 20 .6.3 9.1.7 19.1.8 25.4.4 37.5 2.2 43.6 6.5 3.4 2.4 6.6 8.7 7.7 15.5.5 2.7.9 43 .9 89.5l-.1 84.5-104.6.3-104.5.2.2-87.2c.2-84.3.3-89.7 3.2-96.9 3.5-8.9 16.2-12 48.9-12.3 10.6 0 19.4-.3 19.4-.6.1-.3.2-5.1.3-10.8l.1-10.2-19 .7c-24.8.9-144.7.9-168.7 0l-18.8-.8v10.6z"/></svg>